# xmcd
#
# Track frame offsets:
#        150
#        16752
#        34197
#        51877
#
# Disc length: 886 seconds
#
# Revision: 0
# Processed by: cddbd v1.5.1PL2 Copyright (c) Steve Scherf et al.
# Submitted via: ExactAudioCopy v0.95b4
#
DISCID=27037404
DTITLE=Nelories - An Ordinary Miracle
DYEAR=1994
DGENRE=Pop
TTITLE0=An Ordinary Miracle(Live)
TTITLE1=An Ordinary Miracle(Pimlico Mix)
TTITLE2=Run Free(The Peel Sessions)
TTITLE3=Garlic(The Peel Sessions)
EXTD=
EXTT0=
EXTT1=
EXTT2=
EXTT3=
PLAYORDER=
